<svg width="4483" height="1206" viewBox="0 0 4483 1206" fill="none" xmlns="http://www.w3.org/2000/svg">
<rect width="4483" height="1206" fill="transparent"/>
<path d="M1712.45 614.13C1768.37 522.421 1934.09 419.22 2045.98 437.02C2101.75 445.893 2144.23 481.647 2182.12 521.437C2214.11 555.021 2263.46 614.068 2308.33 629.027" stroke="black" stroke-width="50"/>
<path d="M1705 599.233C1773.4 689.521 1882.57 763.101 1997.15 763.101C2092.6 763.101 2195.39 694.39 2271.09 643.924" stroke="black" stroke-width="50"/>
<path d="M2262.04 649.951C2275.47 640.253 2291.43 633.539 2304.16 623.349" stroke="black" stroke-width="50"/>
<path d="M2002.5 448.014C1986.15 537.035 1961.2 678.818 2031.66 749.275" stroke="black" stroke-width="50"/>
<path d="M2002.5 448.014C1986.15 537.035 1961.2 678.818 2031.66 749.275" stroke="black" stroke-width="50"/>
<path d="M717.4 517.6C729.8 514.8 741.8 505.6 753.4 490C765 474.4 770.8 455 770.8 431.8C770.8 408.2 762.4 391 745.6 380.2C729.2 369.4 703.8 364 669.4 364C618.2 364 576.2 373.8 543.4 393.4C511 413 494.8 434 494.8 456.4C494.8 468 499.2 477.4 508 484.6C516.8 491.4 525.6 496 534.4 498.4C533.2 514 527.8 528.8 518.2 542.8C502.6 540 488.2 531.8 475 518.2C461.8 504.2 455.2 486.2 455.2 464.2C455.2 425 477 392.6 520.6 367C564.2 341 620.6 328 689.8 328C743 328 785.2 336.4 816.4 353.2C847.6 370 863.2 395.8 863.2 430.6C863.2 457.8 853.8 480.4 835 498.4C816.2 516.4 792.2 530 763 539.2C792.2 543.6 815.4 554.6 832.6 572.2C864.6 563.8 894.2 559.6 921.4 559.6L950.8 561.4C951.6 564.2 952 567 952 569.8C952 583.8 950 594.8 946 602.8C935.2 600.4 920.6 599.2 902.2 599.2C884.2 599.2 868 601.4 853.6 605.8C858.8 620.6 861.4 636.4 861.4 653.2C861.4 694 849.2 727.6 824.8 754C800.4 780.4 772.4 793.6 740.8 793.6C719.2 793.6 701.2 787 686.8 773.8C672.4 761 665.2 742.4 665.2 718C665.2 693.2 674.2 669.8 692.2 647.8C710.6 625.4 733 607.8 759.4 595C749 568.2 730.4 554.8 703.6 554.8H699.4C697 544.4 697.6 532.6 701.2 519.4C707.2 519.4 712.6 518.8 717.4 517.6ZM601 452.2C601 444.6 600 439 598 435.4C596.4 431.8 592.6 426.6 586.6 419.8L587.2 415.6C608.4 403.2 634.8 397 666.4 397C678.8 397 688 398 694 400C696 404 697 412.6 697 425.8C697 438.6 686.6 486.8 665.8 570.4C645.4 653.6 633.4 715.6 629.8 756.4C606.2 763.2 580 766.6 551.2 766.6C544.4 766.6 539.4 766 536.2 764.8C538.2 739.6 549.4 687.2 569.8 607.6C590.6 528 601 476.2 601 452.2ZM726.4 742.6C737.2 742.6 746.8 732.8 755.2 713.2C763.6 693.2 767.8 670.8 767.8 646L767.2 635.8C752.4 641.4 738.2 651.6 724.6 666.4C711.4 681.2 704.8 697 704.8 713.8C704.8 723.8 707 731.2 711.4 736C716.2 740.4 721.2 742.6 726.4 742.6Z" fill="black"/>
<path d="M1692.36 599.059L1702.4 612.267L1685.17 614.005L1692.36 599.059Z" fill="black"/>
<path d="M1698.86 602.98C1698.23 604.003 1697.38 605.919 1697.81 603.849C1698.1 602.462 1698.32 602.986 1697.81 604.023C1697.45 604.769 1696.61 605.674 1697.48 604.37C1698.79 602.418 1697.46 605.082 1697.52 605.182C1698.06 605.993 1700.08 602.35 1699.2 602.787C1698.57 603.103 1697.42 604.851 1697.14 605.549C1696.72 606.584 1698.17 603.564 1698.78 602.632C1699.32 601.802 1697.15 604.532 1696.77 605.413" stroke="black" stroke-width="5" stroke-linecap="round"/>
<rect x="2316.87" y="605" width="32.6149" height="30.7062" transform="rotate(54.0844 2316.87 605)" fill="black"/>
<line x1="2297.86" y1="591.208" x2="2345.24" y2="639.803" stroke="white" stroke-width="8"/>
<line x1="2726.41" y1="587.715" x2="2780.41" y2="665.715" stroke="white"/>
<path d="M2739.2 408.2C2739.2 439.8 2725.4 471.6 2697.8 503.6C2670.6 535.2 2638.4 562 2601.2 584C2609.6 592.4 2620.6 615.2 2634.2 652.4C2647.8 689.6 2658.6 718.4 2666.6 738.8C2674.6 758.8 2684.2 778 2695.4 796.4C2707 814.8 2718.6 824 2730.2 824C2732.6 824 2734.4 823.8 2735.6 823.4L2741.6 845C2722 860.6 2699.6 868.4 2674.4 868.4C2649.2 868.4 2631.4 861.8 2621 848.6C2610.6 835.8 2601 809.2 2592.2 768.8C2591 763.6 2587.6 747 2582 719C2569.6 657.8 2559.6 620.2 2552 606.2C2549.6 606.6 2544.8 606.8 2537.6 606.8C2530.4 606.8 2525 605.4 2521.4 602.6C2518.6 599.8 2517.2 593 2517.2 582.2C2517.2 571.4 2518.2 563.2 2520.2 557.6C2522.2 551.6 2528.8 548.6 2540 548.6C2551.6 548.6 2562.6 552 2573 558.8C2587.4 549.2 2605.2 530.8 2626.4 503.6C2637.6 483.2 2643.2 460 2643.2 434C2643.2 422.4 2642.2 410.2 2640.2 397.4C2653.4 389 2666.8 382.4 2680.4 377.6C2694.4 372.4 2705 369.4 2712.2 368.6L2723 367.4C2733.8 373.8 2739.2 387.4 2739.2 408.2ZM2444.6 418.4C2444.6 409.2 2439.8 399.2 2430.2 388.4L2430.8 384.2C2452.8 371.4 2479.8 365 2511.8 365C2524.2 365 2533.4 366 2539.4 368C2541.4 372.4 2542.4 378.6 2542.4 386.6C2542.4 394.2 2541.8 403 2540.6 413C2539.4 422.6 2538.2 431.2 2537 438.8C2536.2 446 2534.2 456.6 2531 470.6C2527.8 484.6 2525.4 494.6 2523.8 500.6C2491 627.4 2472.4 722 2468 784.4C2444.4 791.2 2418.2 794.6 2389.4 794.6C2382.6 794.6 2377.6 794 2374.4 792.8C2376.4 768 2388.6 706 2411 606.8C2433.4 507.6 2444.6 444.8 2444.6 418.4Z" fill="black"/>
<path d="M2020.67 450.666C2077.52 530.256 2067.87 633.96 2038.47 722.148" stroke="black" stroke-width="20"/>
<path d="M2040 720C2038.29 722.35 2036 724.96 2036 728" stroke="black" stroke-width="20"/>
<path d="M1712.45 614.13C1768.37 522.421 1934.09 419.22 2045.98 437.02C2101.75 445.893 2144.23 481.647 2182.12 521.437C2214.11 555.021 2263.46 614.068 2308.33 629.027" stroke="black" stroke-width="50"/>
<path d="M1705 599.233C1773.4 689.521 1882.57 763.101 1997.15 763.101C2092.6 763.101 2195.39 694.39 2271.09 643.924" stroke="black" stroke-width="50"/>
<path d="M2262.04 649.951C2275.47 640.253 2291.43 633.539 2304.16 623.349" stroke="black" stroke-width="50"/>
<path d="M2002.5 448.014C1986.15 537.035 1961.2 678.818 2031.66 749.275" stroke="black" stroke-width="50"/>
<path d="M2002.5 448.014C1986.15 537.035 1961.2 678.818 2031.66 749.275" stroke="black" stroke-width="50"/>
<line x1="2297.86" y1="591.208" x2="2345.24" y2="639.803" stroke="white" stroke-width="8"/>
<line x1="2726.41" y1="587.715" x2="2780.41" y2="665.715" stroke="white"/>
<path d="M2020.67 450.666C2077.52 530.256 2067.87 633.96 2038.47 722.148" stroke="black" stroke-width="20"/>
<path d="M2040 720C2038.29 722.35 2036 724.96 2036 728" stroke="black" stroke-width="20"/>
<path d="M1608.55 600.13C1552.63 508.421 1386.91 405.22 1275.02 423.02C1219.25 431.893 1176.77 467.647 1138.88 507.437C1106.89 541.021 1057.54 600.068 1012.67 615.027" stroke="black" stroke-width="50"/>
<path d="M1616 585.233C1547.6 675.521 1438.43 749.101 1323.85 749.101C1228.4 749.101 1125.61 680.39 1049.91 629.924" stroke="black" stroke-width="50"/>
<path d="M1058.96 635.951C1045.53 626.253 1029.57 619.539 1016.84 609.349" stroke="black" stroke-width="50"/>
<path d="M1628.64 585.059L1618.6 598.267L1635.83 600.005L1628.64 585.059Z" fill="black"/>
<path d="M1622.14 588.98C1622.77 590.003 1623.62 591.919 1623.19 589.849C1622.9 588.462 1622.68 588.986 1623.19 590.023C1623.55 590.769 1624.39 591.674 1623.52 590.37C1622.21 588.418 1623.54 591.082 1623.48 591.182C1622.94 591.993 1620.92 588.35 1621.8 588.787C1622.43 589.103 1623.58 590.851 1623.86 591.549C1624.28 592.584 1622.83 589.564 1622.22 588.632C1621.68 587.802 1623.85 590.532 1624.23 591.413" stroke="black" stroke-width="5" stroke-linecap="round"/>
<rect width="32.6149" height="30.7062" transform="matrix(-0.586593 0.809882 0.809882 0.586593 1004.13 591)" fill="black"/>
<line y1="-4" x2="67.87" y2="-4" transform="matrix(-0.6981 0.716 0.716 0.6981 1026 580)" stroke="white" stroke-width="8"/>
<path d="M1608.55 600.13C1552.63 508.421 1386.91 405.22 1275.02 423.02C1219.25 431.893 1176.77 467.647 1138.88 507.437C1106.89 541.021 1057.54 600.068 1012.67 615.027" stroke="black" stroke-width="50"/>
<path d="M1616 585.233C1547.6 675.521 1438.43 749.101 1323.85 749.101C1228.4 749.101 1125.61 680.39 1049.91 629.924" stroke="black" stroke-width="50"/>
<path d="M1058.96 635.951C1045.53 626.253 1029.57 619.539 1016.84 609.349" stroke="black" stroke-width="50"/>
<line y1="-4" x2="67.87" y2="-4" transform="matrix(-0.6981 0.716 0.716 0.6981 1026.38 580)" stroke="white" stroke-width="8"/>
<path d="M1608.55 600.13C1552.63 508.421 1386.91 405.22 1275.02 423.02C1219.25 431.893 1176.77 467.647 1138.88 507.437C1106.89 541.021 1057.54 600.068 1012.67 615.027" stroke="black" stroke-width="50"/>
<path d="M1608.55 600.13C1552.63 508.421 1386.91 405.22 1275.02 423.02C1219.25 431.893 1176.77 467.647 1138.88 507.437C1106.89 541.021 1057.54 600.068 1012.67 615.027" stroke="black" stroke-width="50"/>
<path d="M1302 441C1285.64 530.021 1260.69 671.804 1331.15 742.261" stroke="black" stroke-width="50"/>
<path d="M1319 455C1375.85 534.59 1366.2 638.294 1336.8 726.482" stroke="black" stroke-width="20"/>
<path d="M993.5 599.5C997.577 594.404 1003.43 589.908 1008.25 585.528C1013.71 580.569 1019.29 575.715 1024.5 570.5" stroke="white" stroke-width="20"/>
</svg>
